<svg width="371" height="280" viewBox="0 0 371 280" fill="none" xmlns="http://www.w3.org/2000/svg">
<g clip-path="url(#clip0_3_177)">
<path d="M5.06055 275.509C5.06225 275.604 5.08251 275.696 5.12018 275.783C5.15785 275.869 5.21218 275.947 5.28007 276.012C5.34796 276.078 5.42807 276.129 5.51582 276.163C5.60357 276.198 5.69723 276.214 5.79143 276.212H370.269C370.364 276.216 370.458 276.201 370.547 276.168C370.636 276.134 370.717 276.083 370.786 276.017C370.854 275.952 370.909 275.873 370.946 275.786C370.983 275.698 371.002 275.604 371.002 275.51C371.002 275.415 370.983 275.321 370.946 275.234C370.909 275.146 370.854 275.067 370.786 275.002C370.717 274.936 370.636 274.885 370.547 274.851C370.458 274.818 370.364 274.803 370.269 274.807H5.79143C5.69726 274.805 5.60364 274.822 5.51592 274.856C5.4282 274.89 5.3481 274.941 5.28022 275.007C5.21234 275.072 5.15799 275.15 5.1203 275.236C5.08261 275.322 5.0623 275.415 5.06055 275.509Z" fill="#CCCCCC"/>
<path d="M190.794 206.149C190.318 209.025 188.836 211.638 186.612 213.524C184.387 215.409 181.565 216.444 178.649 216.444C175.732 216.444 172.91 215.409 170.685 213.524C168.461 211.638 166.979 209.025 166.503 206.149H135.431V273.441H221.866V206.149H190.794Z" fill="#D6D6E3"/>
<path d="M145.482 273.191H136.939V274.698H145.482V273.191Z" fill="#B6B3C5"/>
<path d="M221.112 273.442H212.569V274.949H221.112V273.442Z" fill="#B6B3C5"/>
<path d="M222.118 268.111H135.683V270.453H222.118V268.111Z" fill="#090814"/>
<path d="M352.479 207.907H4.81863C3.5411 207.905 2.3163 207.397 1.41295 206.495C0.509592 205.592 0.00145029 204.368 0 203.091L0 4.81581C0.00133874 3.53906 0.509431 2.31498 1.4128 1.41214C2.31616 0.509307 3.54102 0.00144952 4.81863 0H352.479C353.756 0.00144931 354.981 0.509249 355.884 1.41199C356.788 2.31474 357.296 3.53871 357.297 4.81538V203.091C357.296 204.368 356.788 205.592 355.884 206.494C354.981 207.397 353.756 207.905 352.479 207.907Z" fill="#090814"/>
<path d="M348.754 8.03516H8.54218V199.872H348.754V8.03516Z" fill="white"/>
<path d="M178.968 103.556L142.49 76.2517L106.511 103.182L105.687 102.085L142.49 74.537L178.794 101.711L214.87 62.258L215.015 62.199L251.407 47.5469L251.92 48.8198L215.674 63.4138L178.968 103.556Z" fill="#D6D6E3"/>
<path d="M288.601 154.096H69.1996C69.0175 154.096 68.8428 154.023 68.7141 153.895C68.5853 153.766 68.5129 153.591 68.5129 153.409V48.3214C68.5129 48.1395 68.5853 47.9649 68.7141 47.8362C68.8428 47.7076 69.0175 47.6353 69.1996 47.6353C69.3817 47.6353 69.5563 47.7076 69.6851 47.8362C69.8139 47.9649 69.8862 48.1395 69.8862 48.3214V152.723H288.601C288.783 152.723 288.958 152.796 289.087 152.924C289.215 153.053 289.288 153.227 289.288 153.409C289.288 153.591 289.215 153.766 289.087 153.895C288.958 154.023 288.783 154.096 288.601 154.096Z" fill="#3F3D56"/>
<path d="M116.077 146.548H96.121C95.5807 146.547 95.0626 146.333 94.6804 145.951C94.2983 145.569 94.0833 145.051 94.0826 144.511V117.021C94.0833 116.481 94.2983 115.963 94.6804 115.581C95.0626 115.199 95.5807 114.985 96.121 114.984H116.076C116.617 114.985 117.135 115.199 117.517 115.581C117.899 115.963 118.114 116.481 118.115 117.021V144.512C118.114 145.052 117.899 145.569 117.517 145.951C117.135 146.332 116.617 146.547 116.077 146.548Z" fill="#627FFE"/>
<path d="M152.468 146.547H132.512C131.972 146.547 131.454 146.332 131.072 145.95C130.69 145.569 130.475 145.051 130.474 144.511V90.9464C130.475 90.4064 130.69 89.8887 131.072 89.5069C131.454 89.1251 131.972 88.9103 132.512 88.9098H152.468C153.008 88.9103 153.526 89.1251 153.908 89.5069C154.29 89.8887 154.505 90.4064 154.506 90.9464V144.511C154.505 145.051 154.29 145.569 153.908 145.95C153.526 146.332 153.008 146.547 152.468 146.547H152.468Z" fill="#627FFE"/>
<path d="M188.859 146.548H168.903C168.363 146.547 167.845 146.333 167.463 145.951C167.081 145.569 166.866 145.051 166.865 144.511V117.021C166.866 116.481 167.081 115.963 167.463 115.581C167.845 115.199 168.363 114.985 168.903 114.984H188.859C189.399 114.985 189.917 115.199 190.299 115.581C190.681 115.963 190.896 116.481 190.897 117.021V144.512C190.896 145.052 190.681 145.569 190.299 145.951C189.917 146.332 189.399 146.547 188.859 146.548Z" fill="#627FFE"/>
<path d="M225.25 146.548H205.294C204.766 146.559 204.255 146.361 203.873 145.997C203.491 145.632 203.269 145.131 203.256 144.603V80.5621C203.269 80.0343 203.491 79.5332 203.873 79.1687C204.255 78.8042 204.766 78.6059 205.294 78.6173H225.25C225.778 78.6059 226.289 78.8041 226.671 79.1686C227.053 79.533 227.275 80.034 227.288 80.5616V144.603C227.275 145.131 227.053 145.632 226.671 145.996C226.289 146.361 225.778 146.559 225.25 146.548Z" fill="#627FFE"/>
<path d="M261.641 146.548H241.686C241.145 146.547 240.627 146.333 240.245 145.951C239.863 145.569 239.648 145.051 239.647 144.511V62.1278C239.648 61.5878 239.863 61.0701 240.245 60.6883C240.627 60.3065 241.145 60.0917 241.686 60.0912H261.641C262.181 60.0917 262.699 60.3065 263.081 60.6883C263.464 61.0701 263.679 61.5878 263.679 62.1278V144.511C263.679 145.051 263.464 145.569 263.081 145.951C262.699 146.333 262.182 146.547 261.641 146.548Z" fill="#627FFE"/>
<path d="M106.012 106.553C108.342 106.553 110.23 104.784 110.23 102.602C110.23 100.42 108.342 98.6505 106.012 98.6505C103.683 98.6505 101.794 100.42 101.794 102.602C101.794 104.784 103.683 106.553 106.012 106.553Z" fill="#3F3D56"/>
<path d="M142.391 80.2103C144.721 80.2103 146.609 78.3231 146.609 75.9952C146.609 73.6672 144.721 71.78 142.391 71.78C140.062 71.78 138.173 73.6672 138.173 75.9952C138.173 78.3231 140.062 80.2103 142.391 80.2103Z" fill="#3F3D56"/>
<path d="M178.77 106.553C181.099 106.553 182.988 104.784 182.988 102.602C182.988 100.42 181.099 98.6505 178.77 98.6505C176.44 98.6505 174.552 100.42 174.552 102.602C174.552 104.784 176.44 106.553 178.77 106.553Z" fill="#3F3D56"/>
<path d="M215.149 67.0384C217.478 67.0384 219.367 65.1513 219.367 62.8233C219.367 60.4953 217.478 58.6082 215.149 58.6082C212.819 58.6082 210.931 60.4953 210.931 62.8233C210.931 65.1513 212.819 67.0384 215.149 67.0384Z" fill="#3F3D56"/>
<path d="M251.527 52.2877C253.857 52.2877 255.745 50.4001 255.745 48.0717C255.745 45.7433 253.857 43.8557 251.527 43.8557C249.198 43.8557 247.309 45.7433 247.309 48.0717C247.309 50.4001 249.198 52.2877 251.527 52.2877Z" fill="#3F3D56"/>
<path d="M288.553 121.238C288.553 121.238 282.306 120.161 273.042 111.765C265.713 105.124 255.826 106.43 252.014 107.267C251.884 107.295 251.766 107.362 251.675 107.459C251.584 107.556 251.526 107.679 251.507 107.81C251.488 107.942 251.51 108.076 251.57 108.195C251.629 108.314 251.724 108.411 251.841 108.475C253.381 109.317 255.77 110.548 256.89 110.688C256.89 110.688 254.581 113.075 257.035 114.353C257.328 114.497 257.657 114.557 257.983 114.525C258.308 114.494 258.619 114.373 258.88 114.175C260.06 113.314 263.339 115.27 268.092 116.286C268.092 116.286 286.619 135.446 290.928 132.198L288.553 121.238Z" fill="#FFB9B9"/>
<path d="M320.452 95.1881C320.452 95.1881 322.175 102.508 320.452 107.675L328.207 108.751L335.101 105.306V100.786C335.101 100.786 331.869 93.8966 332.731 85.9309L320.452 95.1881Z" fill="#FFB9B9"/>
<path d="M342.411 253.845C342.411 253.845 348.031 264.825 347.151 272.145C346.27 279.465 354.475 273.006 353.614 268.7C353.431 273.912 356.026 250.447 357.239 244.953C357.37 244.359 357.276 243.738 356.975 243.209C356.674 242.681 356.187 242.283 355.609 242.093C353.019 241.241 348.683 240.198 346.505 241.794C343.287 244.157 342.411 253.845 342.411 253.845Z" fill="#090814"/>
<path d="M321.098 265.901C321.098 265.901 313.773 275.373 311.835 275.589C309.896 275.805 308.603 278.818 311.835 279.464C318.287 280.586 324.923 279.94 331.036 277.592C331.648 277.354 332.162 276.917 332.496 276.352C332.83 275.787 332.964 275.126 332.877 274.475L331.641 265.255L321.098 265.901Z" fill="#090814"/>
<path d="M309.033 165.367L302.008 166.302C302.972 174.501 302.944 182.787 301.924 190.98V220.466C301.924 220.466 301.788 223.063 307.183 226.84C312.841 230.771 318.293 234.988 323.519 239.477L343.067 256.401C343.067 256.401 350.823 246.928 349.745 241.331C349.745 241.331 336.819 237.24 335.096 230.566C334.108 226.747 329.097 223.546 324.994 221.534C322.415 220.282 320.342 218.186 319.119 215.595C317.897 213.003 317.598 210.071 318.273 207.286C318.513 206.319 318.883 205.388 319.374 204.52C322.821 198.492 327.776 184.929 327.776 184.929L318.297 166.873L309.033 165.367Z" fill="#090814"/>
<path d="M319.375 266.561C319.375 266.561 332.085 268.713 332.516 270.005C332.947 271.297 332.516 268.283 332.516 268.283C332.516 268.283 339.843 246.109 338.136 226.522C336.429 206.936 340.29 194.014 340.29 194.014C340.29 194.014 344.814 179.374 342.229 170.978C339.644 162.582 312.5 166.242 312.5 166.242C312.5 166.242 321.979 188.417 321.764 198.966C321.764 198.966 322.841 230.828 324.78 234.488C324.761 234.469 321.745 265.686 319.375 266.561Z" fill="#090814"/>
<path d="M320.868 100.786C320.868 100.786 322.161 108.742 335.087 105.307L326.488 170.749C326.488 170.749 301.498 171.61 301.714 168.596L306.865 128.988L320.868 100.786Z" fill="white"/>
<path d="M321.206 100.57C319.281 102.075 316.978 103.022 314.551 103.308C312.406 103.472 310.321 104.091 308.434 105.124C306.219 106.364 303.751 108.166 303.002 110.361C301.494 114.666 292.015 121.771 287.706 120.264L289.214 133.181C289.214 133.181 301.494 132.535 303.648 127.799L299.99 173.892H303.222C303.222 173.892 304.945 161.405 306.238 158.822C307.53 156.238 310.115 142.029 310.331 138.585C310.546 135.14 313.778 115.333 316.578 111.908L321.21 101.897L321.206 100.57Z" fill="#D6D6E3"/>
<path opacity="0.1" d="M332.193 92.2817C331.911 90.2413 332.474 88.9679 332.731 86.5767L320.452 95.8338C320.452 95.8338 320.747 97.0836 320.971 98.9134C321.591 99.0134 322.217 99.0636 322.844 99.0633C327.107 99.0633 330.174 95.7357 332.193 92.2817Z" fill="black"/>
<path d="M322.822 98.4222C329.247 98.4222 334.455 93.2172 334.455 86.7966C334.455 80.3759 329.247 75.1709 322.822 75.1709C316.397 75.1709 311.188 80.3759 311.188 86.7966C311.188 93.2172 316.397 98.4222 322.822 98.4222Z" fill="#FFB9B9"/>
<path d="M311.13 76.897C311.061 75.088 311.355 73.2835 311.994 71.5897C311.817 71.8561 311.742 72.1778 311.783 72.4952C311.824 72.8126 311.979 73.1044 312.219 73.3167C312.565 71.47 313.514 69.79 314.916 68.5392C314.151 68.6655 313.758 69.6103 313.947 70.3622C314.205 71.0963 314.665 71.743 315.274 72.2282C315.209 71.0909 315.961 70.0295 316.912 69.406C317.903 68.8373 318.985 68.4456 320.111 68.2485C319.725 68.3854 319.395 68.6461 319.173 68.9899C318.951 69.3337 318.849 69.7413 318.883 70.1491C318.886 70.2877 318.944 70.4195 319.043 70.5164C319.151 70.5855 319.278 70.6189 319.406 70.6116C320.526 70.6548 321.648 70.6303 322.765 70.5383C324.138 70.3838 325.519 70.3103 326.901 70.318C331.224 70.4995 335.568 73.4498 336.537 77.6615C336.737 78.6834 336.843 79.7216 336.852 80.763L337.063 86.0805C337.186 87.6317 337.122 89.1921 336.873 90.7282C336.573 92.1463 335.965 93.4809 335.09 94.6368C334.215 95.7927 333.095 96.7413 331.811 97.4151C330.251 95.1561 330.112 92.253 329.572 89.5618C329.487 88.9411 329.255 88.3493 328.898 87.8348C328.713 87.5804 328.453 87.3896 328.155 87.289C327.857 87.1884 327.535 87.183 327.233 87.2733C326.65 87.5067 326.399 88.3963 326.883 88.794C326.451 89.3036 325.643 88.9237 325.155 88.47C323.791 87.1769 322.852 85.5004 322.462 83.6622C322.268 82.7377 322.073 81.5983 321.165 81.2819C320.853 81.1962 320.527 81.1741 320.206 81.2171C318.312 81.3468 315.351 82.1286 313.519 81.5279C311.837 80.9753 311.13 78.4913 311.13 76.897Z" fill="#090814"/>
<path d="M287.617 120.269C287.617 120.269 285.894 128.225 289.125 133.186L290.956 133.036L289.959 120.399L287.617 120.269Z" fill="#D6D6E3"/>
<path d="M334.347 98.5435L348.243 110.492C348.243 110.492 356.429 118.888 352.982 132.452C352.982 132.452 351.474 152.258 349.75 153.119C349.75 153.119 343.718 165.175 343.287 176.585C343.287 176.585 334.778 159.47 331.111 169.373C327.444 179.277 319.37 181.541 319.37 181.541L324.109 122.988C324.109 122.988 336.071 102.184 334.347 98.5435Z" fill="#D6D6E3"/>
<path d="M340.702 149.01C340.702 149.01 344.149 146.642 349.75 153.1L335.963 178.074L331.331 171.086C331.331 171.086 341.135 151.808 340.702 149.01Z" fill="#FFB9B9"/>
<path d="M337.363 149.979C337.363 149.979 344.988 158.534 347.961 157.163L350.715 150.755L340.379 146.319L337.363 149.979Z" fill="#D6D6E3"/>
<path opacity="0.1" d="M338.44 123.714C338.44 123.714 338.871 139.214 337.148 145.027L338.44 123.714Z" fill="black"/>
<path opacity="0.1" d="M303.54 126.727C303.54 126.727 306.125 125.866 306.125 123.714L303.54 126.727Z" fill="black"/>
</g>
<defs>
<clipPath id="clip0_3_177">
<rect width="371" height="280" fill="white"/>
</clipPath>
</defs>
</svg>
