<svg width="371" height="290" viewBox="0 0 371 290" fill="none" xmlns="http://www.w3.org/2000/svg">
<g clip-path="url(#clip0_3_62)">
<path d="M253.501 68.9148H251.9V25.2632C251.9 18.563 249.227 12.1372 244.469 7.39943C239.712 2.66166 233.259 0 226.531 0H133.664C126.936 0 120.483 2.66166 115.726 7.39943C110.968 12.1372 108.296 18.563 108.296 25.2632V264.736C108.296 271.437 110.968 277.862 115.726 282.6C120.483 287.338 126.936 290 133.664 290H226.531C233.259 290 239.712 287.338 244.469 282.6C249.227 277.862 251.9 271.437 251.9 264.736V99.9859H253.5L253.501 68.9148Z" fill="#090814"/>
<path d="M227.558 6.57275H215.436C215.993 7.93379 216.206 9.41047 216.056 10.8727C215.905 12.335 215.396 13.7379 214.572 14.9579C213.749 16.1779 212.637 17.1776 211.334 17.8688C210.032 18.56 208.578 18.9216 207.102 18.9218H153.898C152.422 18.9217 150.968 18.5602 149.665 17.869C148.363 17.1778 147.251 16.1781 146.427 14.9581C145.604 13.7381 145.095 12.3351 144.944 10.8728C144.793 9.41055 145.006 7.93382 145.564 6.57275H134.242C129.217 6.57275 124.398 8.56053 120.845 12.0988C117.292 15.637 115.296 20.436 115.296 25.4398V264.562C115.296 269.565 117.292 274.364 120.845 277.903C124.398 281.441 129.217 283.429 134.242 283.429H227.554C230.042 283.429 232.506 282.941 234.805 281.992C237.103 281.044 239.192 279.654 240.951 277.903C242.71 276.151 244.106 274.071 245.058 271.782C246.01 269.493 246.5 267.039 246.5 264.562V25.4398C246.5 20.4367 244.505 15.6384 240.953 12.1003C237.4 8.56211 232.582 6.57385 227.558 6.57275Z" fill="white"/>
<path d="M224.62 199.944H137.177C134.833 199.941 132.586 199.013 130.929 197.363C129.272 195.713 128.34 193.475 128.337 191.141V75.8357C128.34 73.5019 129.272 71.2645 130.929 69.6142C132.586 67.964 134.833 67.0358 137.177 67.0332H224.62C226.963 67.0358 229.21 67.964 230.867 69.6142C232.524 71.2645 233.456 73.5019 233.459 75.8357V191.139C233.457 193.473 232.525 195.711 230.868 197.362C229.211 199.013 226.964 199.941 224.62 199.944Z" fill="#E6E6E6"/>
<path d="M218.473 192.608H143.323C141.243 192.605 139.248 191.781 137.777 190.316C136.305 188.851 135.478 186.864 135.475 184.792V82.1873C135.477 80.1152 136.305 78.1287 137.776 76.6635C139.248 75.1983 141.243 74.3741 143.323 74.3718H218.473C220.554 74.3733 222.55 75.1971 224.022 76.6624C225.494 78.1276 226.322 80.1147 226.324 82.1873V184.792C226.322 186.865 225.494 188.852 224.022 190.317C222.55 191.782 220.554 192.606 218.473 192.608Z" fill="white"/>
<path d="M210.976 93.8703H150.82C150.299 93.8703 149.8 93.6644 149.432 93.2978C149.063 92.9312 148.857 92.434 148.857 91.9156C148.857 91.3972 149.063 90.9 149.432 90.5335C149.8 90.1669 150.299 89.9609 150.82 89.9609H210.976C211.497 89.9609 211.996 90.1669 212.364 90.5335C212.732 90.9 212.939 91.3972 212.939 91.9156C212.939 92.434 212.732 92.9312 212.364 93.2978C211.996 93.6644 211.497 93.8703 210.976 93.8703Z" fill="#E4E4E4"/>
<path d="M210.976 101.591H150.82C150.299 101.591 149.8 101.385 149.432 101.018C149.063 100.652 148.857 100.154 148.857 99.636C148.857 99.1175 149.063 98.6204 149.432 98.2538C149.8 97.8872 150.299 97.6813 150.82 97.6813H210.976C211.497 97.6813 211.996 97.8872 212.364 98.2538C212.732 98.6204 212.939 99.1175 212.939 99.636C212.939 100.154 212.732 100.652 212.364 101.018C211.996 101.385 211.497 101.591 210.976 101.591Z" fill="#627FFE"/>
<path d="M176.896 109.311H150.82C150.299 109.311 149.8 109.105 149.432 108.738C149.063 108.372 148.857 107.875 148.857 107.356C148.857 106.838 149.063 106.341 149.432 105.974C149.8 105.608 150.299 105.402 150.82 105.402H176.896C177.417 105.402 177.916 105.608 178.284 105.974C178.652 106.341 178.859 106.838 178.859 107.356C178.859 107.875 178.652 108.372 178.284 108.738C177.916 109.105 177.417 109.311 176.896 109.311Z" fill="#E4E4E4"/>
<path d="M210.976 125.48H150.82C150.299 125.48 149.8 125.274 149.432 124.908C149.063 124.541 148.857 124.044 148.857 123.525C148.857 123.007 149.063 122.51 149.432 122.143C149.8 121.777 150.299 121.571 150.82 121.571H210.976C211.497 121.571 211.996 121.777 212.364 122.143C212.732 122.51 212.939 123.007 212.939 123.525C212.939 124.044 212.732 124.541 212.364 124.908C211.996 125.274 211.497 125.48 210.976 125.48Z" fill="#E4E4E4"/>
<path d="M210.976 133.199H150.82C150.299 133.199 149.8 132.993 149.432 132.627C149.063 132.26 148.857 131.763 148.857 131.245C148.857 130.726 149.063 130.229 149.432 129.863C149.8 129.496 150.299 129.29 150.82 129.29H210.976C211.497 129.29 211.996 129.496 212.364 129.863C212.732 130.229 212.939 130.726 212.939 131.245C212.939 131.763 212.732 132.26 212.364 132.627C211.996 132.993 211.497 133.199 210.976 133.199Z" fill="#E4E4E4"/>
<path d="M176.896 140.921H150.82C150.299 140.921 149.8 140.715 149.432 140.348C149.063 139.982 148.857 139.484 148.857 138.966C148.857 138.448 149.063 137.95 149.432 137.584C149.8 137.217 150.299 137.011 150.82 137.011H176.896C177.417 137.011 177.916 137.217 178.284 137.584C178.652 137.95 178.859 138.448 178.859 138.966C178.859 139.484 178.652 139.982 178.284 140.348C177.916 140.715 177.417 140.921 176.896 140.921Z" fill="#E4E4E4"/>
<path d="M210.976 157.089H150.82C150.299 157.089 149.8 156.883 149.432 156.517C149.063 156.15 148.857 155.653 148.857 155.135C148.857 154.616 149.063 154.119 149.432 153.753C149.8 153.386 150.299 153.18 150.82 153.18H210.976C211.497 153.18 211.996 153.386 212.364 153.753C212.732 154.119 212.939 154.616 212.939 155.135C212.939 155.653 212.732 156.15 212.364 156.517C211.996 156.883 211.497 157.089 210.976 157.089Z" fill="#627FFE"/>
<path d="M210.976 164.81H150.82C150.299 164.81 149.8 164.604 149.432 164.238C149.063 163.871 148.857 163.374 148.857 162.855C148.857 162.337 149.063 161.84 149.432 161.473C149.8 161.107 150.299 160.901 150.82 160.901H210.976C211.497 160.901 211.996 161.107 212.364 161.473C212.732 161.84 212.939 162.337 212.939 162.855C212.939 163.374 212.732 163.871 212.364 164.238C211.996 164.604 211.497 164.81 210.976 164.81Z" fill="#E4E4E4"/>
<path d="M176.896 172.529H150.82C150.299 172.529 149.8 172.323 149.432 171.956C149.063 171.59 148.857 171.093 148.857 170.574C148.857 170.056 149.063 169.559 149.432 169.192C149.8 168.826 150.299 168.62 150.82 168.62H176.896C177.417 168.62 177.916 168.826 178.284 169.192C178.652 169.559 178.859 170.056 178.859 170.574C178.859 171.093 178.652 171.59 178.284 171.956C177.916 172.323 177.417 172.529 176.896 172.529Z" fill="#E4E4E4"/>
<path d="M147.894 156.288L82.5374 100.617H38.6288V99.7974H82.8413L148.429 155.665L147.894 156.288Z" fill="#2F2E41"/>
<path d="M38.6288 106.769C42.2676 106.769 45.2175 103.831 45.2175 100.208C45.2175 96.584 42.2676 93.6464 38.6288 93.6464C34.99 93.6464 32.0401 96.584 32.0401 100.208C32.0401 103.831 34.99 106.769 38.6288 106.769Z" fill="#627FFE"/>
<path d="M62.1192 122.276H1.96192C1.44134 122.276 0.942079 122.07 0.573974 121.703C0.205869 121.337 -0.000930786 120.84 -0.000930786 120.321C-0.000930786 119.803 0.205869 119.306 0.573974 118.939C0.942079 118.572 1.44134 118.366 1.96192 118.366H62.1192C62.6398 118.366 63.1391 118.572 63.5072 118.939C63.8753 119.306 64.0821 119.803 64.0821 120.321C64.0821 120.84 63.8753 121.337 63.5072 121.703C63.1391 122.07 62.6398 122.276 62.1192 122.276Z" fill="#627FFE"/>
<path d="M62.1192 129.998H1.96192C1.44134 129.998 0.942079 129.792 0.573974 129.425C0.205869 129.059 -0.000930786 128.562 -0.000930786 128.043C-0.000930786 127.525 0.205869 127.028 0.573974 126.661C0.942079 126.295 1.44134 126.089 1.96192 126.089H62.1192C62.6398 126.089 63.1391 126.295 63.5072 126.661C63.8753 127.028 64.0821 127.525 64.0821 128.043C64.0821 128.562 63.8753 129.059 63.5072 129.425C63.1391 129.792 62.6398 129.998 62.1192 129.998Z" fill="#627FFE"/>
<path d="M28.0387 137.716H1.96191C1.44134 137.716 0.942079 137.51 0.573974 137.144C0.205869 136.777 -0.000930786 136.28 -0.000930786 135.762C-0.000930786 135.243 0.205869 134.746 0.573974 134.38C0.942079 134.013 1.44134 133.807 1.96191 133.807H28.0387C28.5592 133.807 29.0585 134.013 29.4266 134.38C29.7947 134.746 30.0015 135.243 30.0015 135.762C30.0015 136.28 29.7947 136.777 29.4266 137.144C29.0585 137.51 28.5592 137.716 28.0387 137.716Z" fill="#627FFE"/>
<path d="M214.439 101.069L280.027 45.2014H324.24V46.0215H280.331L214.974 101.692L214.439 101.069Z" fill="#2F2E41"/>
<path d="M324.239 52.173C327.878 52.173 330.828 49.2354 330.828 45.6117C330.828 41.988 327.878 39.0504 324.239 39.0504C320.601 39.0504 317.651 41.988 317.651 45.6117C317.651 49.2354 320.601 52.173 324.239 52.173Z" fill="#627FFE"/>
<path d="M369.038 67.4504H308.881C308.36 67.4504 307.861 67.2444 307.493 66.8779C307.125 66.5113 306.918 66.0141 306.918 65.4957C306.918 64.9773 307.125 64.4801 307.493 64.1135C307.861 63.747 308.36 63.541 308.881 63.541H369.038C369.558 63.541 370.057 63.747 370.426 64.1135C370.794 64.4801 371 64.9773 371 65.4957C371 66.0141 370.794 66.5113 370.426 66.8779C370.057 67.2444 369.558 67.4504 369.038 67.4504Z" fill="#627FFE"/>
<path d="M369.038 75.1702H308.881C308.36 75.1702 307.861 74.9643 307.493 74.5977C307.125 74.2311 306.918 73.734 306.918 73.2155C306.918 72.6971 307.125 72.2 307.493 71.8334C307.861 71.4668 308.36 71.2609 308.881 71.2609H369.038C369.558 71.2609 370.057 71.4668 370.426 71.8334C370.794 72.2 371 72.6971 371 73.2155C371 73.734 370.794 74.2311 370.426 74.5977C370.057 74.9643 369.558 75.1702 369.038 75.1702Z" fill="#627FFE"/>
<path d="M334.958 82.8906H308.881C308.36 82.8906 307.861 82.6846 307.493 82.3181C307.125 81.9515 306.918 81.4543 306.918 80.9359C306.918 80.4175 307.125 79.9203 307.493 79.5537C307.861 79.1871 308.36 78.9812 308.881 78.9812H334.958C335.478 78.9812 335.977 79.1871 336.345 79.5537C336.714 79.9203 336.92 80.4175 336.92 80.9359C336.92 81.4543 336.714 81.9515 336.345 82.3181C335.977 82.6846 335.478 82.8906 334.958 82.8906Z" fill="#627FFE"/>
</g>
<defs>
<clipPath id="clip0_3_62">
<rect width="371" height="290" fill="white"/>
</clipPath>
</defs>
</svg>
