<svg width="371" height="222" viewBox="0 0 371 222" fill="none" xmlns="http://www.w3.org/2000/svg">
<g clip-path="url(#clip0_3_113)">
<path d="M212.94 214.635H81.7327C81.6368 214.62 81.5494 214.572 81.4862 214.498C81.4231 214.425 81.3884 214.332 81.3884 214.235C81.3884 214.139 81.4231 214.046 81.4862 213.972C81.5494 213.899 81.6368 213.851 81.7327 213.836H212.94C213.036 213.851 213.124 213.899 213.187 213.972C213.25 214.046 213.285 214.139 213.285 214.235C213.285 214.332 213.25 214.425 213.187 214.498C213.124 214.572 213.036 214.62 212.94 214.635Z" fill="#E6E6E6"/>
<path d="M368.186 11.5812H365.774V11.9805H368.186V11.5812Z" fill="#E6E6E6"/>
<path d="M360.9 11.9805H356.027V11.5812H360.9V11.9805ZM351.154 11.9805H346.282V11.5812H351.154V11.9805ZM341.409 11.9805H336.535V11.5812H341.41L341.409 11.9805ZM331.663 11.9805H326.789V11.5812H331.662L331.663 11.9805ZM321.917 11.9805H317.044V11.5812H321.916L321.917 11.9805ZM312.171 11.9805H307.297V11.5812H312.17L312.171 11.9805ZM302.425 11.9805H297.549V11.5812H302.422L302.425 11.9805ZM292.679 11.9805H287.805V11.5812H292.678L292.679 11.9805ZM282.933 11.9805H278.059V11.5812H282.932L282.933 11.9805ZM273.187 11.9805H268.313V11.5812H273.187L273.187 11.9805ZM263.442 11.9805H258.567V11.5812H263.44L263.442 11.9805ZM253.696 11.9805H248.821V11.5812H253.694L253.696 11.9805ZM243.95 11.9805H239.075V11.5812H243.948L243.95 11.9805ZM234.204 11.9805H229.329V11.5812H234.202L234.204 11.9805ZM224.458 11.9805H219.583V11.5812H224.456L224.458 11.9805ZM214.712 11.9805H209.837V11.5812H214.71L214.712 11.9805Z" fill="#E6E6E6"/>
<path d="M221.838 21.5002H219.426V21.8996H221.838V21.5002Z" fill="#E6E6E6"/>
<path d="M288.987 48.7207H286.575V49.1201H288.987V48.7207Z" fill="#E6E6E6"/>
<path d="M281.774 49.1201H276.973V48.7207H281.774V49.1201ZM272.173 49.1201H267.372V48.7207H272.173V49.1201ZM262.572 49.1201H257.771V48.7207H262.573L262.572 49.1201ZM252.971 49.1201H248.17V48.7207H252.97L252.971 49.1201ZM243.369 49.1201H238.568V48.7207H243.369L243.369 49.1201ZM233.768 49.1201H228.967V48.7207H233.767L233.768 49.1201ZM224.167 49.1201H219.366V48.7207H224.166L224.167 49.1201ZM214.566 49.1201H209.764V48.7207H214.565L214.566 49.1201Z" fill="#E6E6E6"/>
<path d="M221.838 58.6398H219.426V59.0391H221.838V58.6398Z" fill="#E6E6E6"/>
<path d="M241.95 66.2921H239.538V66.6915H241.95V66.2921Z" fill="#E6E6E6"/>
<path d="M234.599 66.6915H229.66V66.2921H234.599V66.6915ZM224.72 66.6915H219.781V66.2921H224.721L224.72 66.6915ZM214.842 66.6915H209.903V66.2921H214.842V66.6915Z" fill="#E6E6E6"/>
<path d="M221.838 76.2112H219.426V76.6105H221.838V76.2112Z" fill="#E6E6E6"/>
<path d="M368.254 15.978V84.3707C368.25 87.8117 366.872 91.1106 364.422 93.5438C361.973 95.9769 358.652 97.3456 355.188 97.3496H215.284C213.45 97.3508 211.636 96.9672 209.961 96.2239C208.287 95.4807 206.789 94.3946 205.567 93.0367V92.4256C206.744 93.8322 208.216 94.966 209.881 95.7476C211.545 96.5292 213.362 96.9397 215.203 96.9503L239.401 72.9134C240.042 72.2769 240.911 71.9193 241.817 71.9193C242.723 71.9193 243.592 72.2769 244.233 72.9134L257.094 85.6846L287.242 55.7413C287.883 55.1048 288.752 54.7473 289.658 54.7473C290.564 54.7473 291.433 55.1048 292.074 55.7413L309.759 73.3048L367.454 15.998L367.852 15.986L368.037 15.982L368.254 15.978Z" fill="#627FFE"/>
<path d="M355.32 97.4415H215.416C211.952 97.4376 208.631 96.0689 206.181 93.6357C203.732 91.2026 202.354 87.9036 202.35 84.4626V12.9789C202.354 9.53787 203.732 6.23891 206.181 3.80575C208.631 1.37258 211.952 0.00391079 215.416 0H355.32C358.784 0.00391079 362.105 1.37258 364.555 3.80575C367.004 6.23891 368.382 9.53787 368.386 12.9789V84.4626C368.382 87.9036 367.004 91.2026 364.555 93.6357C362.105 96.0689 358.784 97.4376 355.32 97.4415ZM215.416 0.39935C212.058 0.403155 208.839 1.72972 206.465 4.08801C204.091 6.44631 202.756 9.64375 202.752 12.9789V84.4626C202.756 87.7977 204.091 90.9952 206.465 93.3534C208.839 95.7117 212.058 97.0383 215.416 97.0421H355.32C358.678 97.0383 361.897 95.7117 364.271 93.3534C366.645 90.9952 367.98 87.7977 367.984 84.4626V12.9789C367.98 9.64375 366.645 6.44631 364.271 4.08801C361.897 1.72972 358.678 0.403155 355.32 0.39935H215.416Z" fill="#3F3D56"/>
<path d="M215.559 97.3832L215.274 97.1009L239.534 73.0013C240.175 72.3655 241.044 72.0085 241.95 72.0085C242.856 72.0085 243.725 72.3655 244.366 73.0013L257.227 85.7765L287.375 55.8292C288.016 55.1936 288.885 54.8366 289.791 54.8366C290.697 54.8366 291.566 55.1936 292.207 55.8292L309.892 73.3966L368.044 15.6322L368.328 15.9145L309.892 73.9625L291.921 56.1115C291.356 55.5499 290.589 55.2344 289.789 55.2344C288.989 55.2344 288.223 55.5499 287.657 56.1115L257.224 86.3424L244.078 73.2836C243.512 72.7229 242.745 72.408 241.946 72.408C241.146 72.408 240.38 72.7229 239.814 73.2836L215.559 97.3832Z" fill="#3F3D56"/>
<path d="M241.95 69.2873C243.505 69.2873 244.764 68.0357 244.764 66.4919C244.764 64.948 243.505 63.6964 241.95 63.6964C240.396 63.6964 239.136 64.948 239.136 66.4919C239.136 68.0357 240.396 69.2873 241.95 69.2873Z" fill="#3F3D56"/>
<path d="M288.987 51.7159C290.541 51.7159 291.801 50.4643 291.801 48.9205C291.801 47.3766 290.541 46.125 288.987 46.125C287.433 46.125 286.173 47.3766 286.173 48.9205C286.173 50.4643 287.433 51.7159 288.987 51.7159Z" fill="#3F3D56"/>
<path d="M368.186 14.5763C369.74 14.5763 371 13.3247 371 11.7808C371 10.2369 369.74 8.98535 368.186 8.98535C366.632 8.98535 365.372 10.2369 365.372 11.7808C365.372 13.3247 366.632 14.5763 368.186 14.5763Z" fill="#3F3D56"/>
<path d="M142.395 53.1875C142.395 53.1875 142.677 60.4796 140.983 62.1625C139.29 63.8454 149.454 69.7354 149.454 69.7354L155.384 60.4796C155.384 60.4796 153.125 56.5532 153.688 53.1875H142.395Z" fill="#FFB9B9"/>
<path d="M124.184 201.417V208.429L132.937 208.988L132.374 201.415L124.184 201.417Z" fill="#FFB9B9"/>
<path d="M172.184 201.417V208.429L163.431 208.988L163.994 201.415L172.184 201.417Z" fill="#FFB9B9"/>
<path d="M128.702 123.726C128.702 123.726 124.184 139.994 127.007 152.896C127.007 152.896 127.007 158.505 128.137 159.627C129.266 160.749 129.549 160.749 128.7 161.31C127.851 161.871 126.158 163.273 127.005 164.115C127.853 164.956 128.135 166.078 127.568 166.359C127.002 166.639 126.439 167.2 127.005 168.322C127.572 169.444 124.182 199.454 124.182 199.454C124.182 199.454 120.794 203.1 124.182 203.381C127.57 203.662 133.217 205.064 133.782 202.822C134.347 200.58 138.864 168.885 138.864 168.885C138.864 168.885 139.427 168.043 140.558 166.641C141.69 165.238 141.121 164.678 141.121 164.397C141.121 164.116 147.054 137.469 147.054 137.469C147.054 137.469 155.807 167.76 156.654 168.321C157.501 168.882 157.783 168.88 157.783 169.723C157.783 170.567 157.22 171.126 157.783 171.967C158.092 172.419 158.375 172.887 158.63 173.37C158.63 173.37 160.042 204.783 162.866 204.783C165.689 204.783 174.16 204.224 173.313 201.697C172.466 199.171 171.336 199.736 171.336 199.736C171.336 199.736 173.313 173.932 168.513 166.36V160.188C168.513 159.629 168.794 159.346 168.513 158.785C168.231 158.224 169.36 124.848 163.995 122.884C158.631 120.919 128.702 123.726 128.702 123.726Z" fill="#D6D6E3"/>
<path d="M129.549 206.466C129.549 206.466 128.137 204.222 126.16 204.222C124.184 204.222 122.772 206.466 122.772 206.466L117.69 213.478C117.69 213.478 110.349 217.965 113.172 220.49C115.996 223.014 123.619 221.611 123.619 221.611C123.619 221.611 129.831 217.124 130.678 216.843C131.876 216.314 133.013 215.656 134.066 214.88C134.348 214.6 133.503 204.503 132.654 205.204C131.805 205.905 131.243 208.149 129.549 206.466Z" fill="#090814"/>
<path d="M166.819 206.466C166.819 206.466 168.231 204.222 170.207 204.222C172.184 204.222 173.596 206.466 173.596 206.466L178.678 213.478C178.678 213.478 186.019 217.965 183.196 220.49C180.372 223.014 172.749 221.611 172.749 221.611C172.749 221.611 166.537 217.124 165.69 216.843C164.492 216.314 163.355 215.656 162.302 214.88C162.02 214.6 162.864 204.503 163.713 205.204C164.563 205.905 165.125 208.149 166.819 206.466Z" fill="#090814"/>
<path d="M146.496 56.8555C152.109 56.8555 156.66 52.3348 156.66 46.7583C156.66 41.1818 152.109 36.6611 146.496 36.6611C140.882 36.6611 136.331 41.1818 136.331 46.7583C136.331 52.3348 140.882 56.8555 146.496 56.8555Z" fill="#FFB9B9"/>
<path d="M144.654 63.0038C144.654 63.0038 142.754 63.1077 141.869 60.2511L126.866 71.1374L133.078 87.6853C133.078 87.6853 133.925 96.6603 133.078 99.1866C132.231 101.713 131.666 103.674 131.666 104.796C131.666 105.918 125.736 124.709 127.995 125.551C130.254 126.392 164.7 129.758 165.548 124.148C166.396 118.539 162.727 81.5149 162.727 81.5149L168.656 67.211L154.239 57.8427C154.239 57.8427 152.842 63.5645 144.654 63.0038Z" fill="#627FFE"/>
<path d="M125.88 88.9476L124.751 97.6423C124.751 97.6423 120.233 106.898 121.362 119.239L121.081 127.372C121.081 127.372 118.257 141.396 123.904 141.957C129.551 142.518 125.881 126.531 125.881 126.531L128.987 118.958L132.166 102.112L133.786 90.3497L125.88 88.9476Z" fill="#FFB9B9"/>
<path d="M130.96 70.7166L126.866 71.1371C126.866 71.1371 124.184 90.9105 125.031 90.9105C125.878 90.9105 135.478 93.1544 135.76 92.5934C136.042 92.0323 130.96 70.7166 130.96 70.7166Z" fill="#627FFE"/>
<path d="M139.494 36.8073L137.662 36.1456C137.662 36.1456 141.493 32.3398 146.823 32.6712L145.324 31.182C145.324 31.182 148.989 29.8582 152.319 33.3329C154.071 35.1596 156.098 37.3069 157.36 39.7253H159.322L158.503 41.3523L161.37 42.9792L158.428 42.6869C158.706 44.0916 158.61 45.5443 158.149 46.9009L157.483 48.7211C157.483 48.7211 154.819 43.4257 154.819 42.764V44.4185C154.819 44.4185 152.987 42.9293 152.987 41.9365L151.988 43.0947L151.488 41.2744L145.324 43.0947L146.324 41.6055L142.493 42.1019L143.992 40.2816C143.992 40.2816 139.661 42.4325 139.494 44.2528C139.328 46.073 137.163 48.3896 137.163 48.3896L136.163 46.7351C136.163 46.7351 134.664 39.2892 139.494 36.8073Z" fill="#090814"/>
<path d="M166.184 180.662C176.592 180.662 185.03 168.733 185.03 154.017C185.03 139.302 176.592 127.372 166.184 127.372C155.775 127.372 147.337 139.302 147.337 154.017C147.337 168.733 155.775 180.662 166.184 180.662Z" fill="#3F3D56"/>
<path opacity="0.1" d="M166.184 180.662C176.592 180.662 185.03 168.733 185.03 154.017C185.03 139.302 176.592 127.372 166.184 127.372C155.775 127.372 147.337 139.302 147.337 154.017C147.337 168.733 155.775 180.662 166.184 180.662Z" fill="black"/>
<path d="M168.725 180.662C179.134 180.662 187.572 168.733 187.572 154.017C187.572 139.302 179.134 127.372 168.725 127.372C158.316 127.372 149.878 139.302 149.878 154.017C149.878 168.733 158.316 180.662 168.725 180.662Z" fill="#090814"/>
<path d="M168.584 165.024V162.341C167.292 162.33 166.034 161.923 164.984 161.174L165.546 159.395C166.525 160.123 167.713 160.524 168.936 160.537C170.607 160.537 171.737 159.448 171.737 157.934C171.737 156.473 170.819 155.57 169.077 154.773C166.676 153.711 165.193 152.489 165.193 150.178C165.156 149.157 165.498 148.157 166.153 147.369C166.808 146.581 167.731 146.059 168.748 145.902V143.219H170.21V145.796C171.298 145.81 172.359 146.133 173.27 146.725L172.681 148.478C171.808 147.885 170.773 147.57 169.715 147.575C167.903 147.575 167.22 148.797 167.22 149.859C167.22 151.24 168.091 151.931 170.139 152.887C172.563 154.003 173.787 155.384 173.787 157.748C173.82 158.819 173.461 159.866 172.778 160.696C172.095 161.526 171.132 162.082 170.069 162.263V165.024H168.584Z" fill="#627FFE"/>
<path d="M172.749 85.8623V97.3636C172.749 97.3636 173.03 111.387 168.231 120.082L165.689 125.689C165.689 125.689 160.607 141.957 157.501 136.908C154.396 131.86 160.89 123.446 160.89 123.446L164.565 102.097L162.302 87.8263L172.749 85.8623Z" fill="#FFB9B9"/>
<path d="M163.148 66.5098L168.656 67.211C168.656 67.211 175.289 87.2648 173.597 88.1062C171.905 88.9477 160.893 89.5087 160.893 89.5087L163.148 66.5098Z" fill="#627FFE"/>
<path d="M88.8932 76.859H7.59264C5.59219 76.8695 3.66922 76.0913 2.24565 74.6952C0.822083 73.2991 0.0141908 71.399 -0.000793457 69.4119V28.3986C0.013767 26.4112 0.821472 24.5107 2.24509 23.1143C3.6687 21.7178 5.59191 20.9394 7.59264 20.9499H88.8932C90.8933 20.9398 92.8159 21.7182 94.2391 23.1143C95.6623 24.5104 96.47 26.4102 96.485 28.397V69.4103C96.4705 71.3974 95.6629 73.2976 94.2397 74.6941C92.8164 76.0905 90.8936 76.8691 88.8932 76.859ZM7.59264 21.1792C5.65389 21.1692 3.79029 21.9235 2.41069 23.2766C1.03109 24.6297 0.248124 26.4712 0.233565 28.397V69.4103C0.248124 71.3361 1.03109 73.1776 2.41069 74.5307C3.79029 75.8838 5.65389 76.6381 7.59264 76.6281H88.8932C90.8319 76.6381 92.6955 75.8838 94.0751 74.5307C95.4547 73.1776 96.2377 71.3361 96.2522 69.4103V28.397C96.2377 26.4712 95.4547 24.6297 94.0751 23.2766C92.6955 21.9235 90.8319 21.1692 88.8932 21.1792H7.59264Z" fill="#3F3D56"/>
<path d="M62.7158 28.9369H20.9053C19.129 28.9369 17.6891 30.3673 17.6891 32.1317V33.7291C17.6891 35.4935 19.129 36.9239 20.9053 36.9239H62.7158C64.4921 36.9239 65.932 35.4935 65.932 33.7291V32.1317C65.932 30.3673 64.4921 28.9369 62.7158 28.9369Z" fill="#E6E6E6"/>
<path d="M10.2914 36.364C10.2914 36.5335 10.2236 36.696 10.103 36.8159C9.98239 36.9357 9.81879 37.003 9.64819 37.003C9.47759 37.003 9.31398 36.9357 9.19335 36.8159C9.07272 36.696 9.00495 36.5335 9.00495 36.364V31.5183L7.53112 32.9835C7.47133 33.0429 7.40035 33.0901 7.32223 33.1222C7.24411 33.1543 7.16039 33.1709 7.07584 33.1709C6.99128 33.1709 6.90755 33.1543 6.82943 33.1222C6.75131 33.0901 6.68033 33.0429 6.62054 32.9835C6.56075 32.9242 6.51332 32.8536 6.48096 32.7761C6.4486 32.6985 6.43195 32.6153 6.43195 32.5313C6.43195 32.4473 6.4486 32.3641 6.48096 32.2865C6.51332 32.2089 6.56075 32.1384 6.62054 32.079L9.19349 29.5232C9.31411 29.4034 9.47766 29.3362 9.64819 29.3362C9.81871 29.3362 9.98225 29.4034 10.1029 29.5232L12.6758 32.079C12.7356 32.1384 12.783 32.2089 12.8154 32.2865C12.8478 32.3641 12.8644 32.4473 12.8644 32.5313C12.8644 32.6153 12.8478 32.6985 12.8154 32.7761C12.783 32.8536 12.7356 32.9242 12.6758 32.9835C12.616 33.0429 12.5451 33.0901 12.4669 33.1222C12.3888 33.1543 12.3051 33.1709 12.2205 33.1709C12.136 33.1709 12.0523 33.1543 11.9741 33.1222C11.896 33.0901 11.825 33.0429 11.7652 32.9835L10.2914 31.5183V36.364Z" fill="#627FFE"/>
<path d="M62.7158 28.9369H20.9053C19.129 28.9369 17.6891 30.3673 17.6891 32.1317V33.7291C17.6891 35.4935 19.129 36.9239 20.9053 36.9239H62.7158C64.4921 36.9239 65.932 35.4935 65.932 33.7291V32.1317C65.932 30.3673 64.4921 28.9369 62.7158 28.9369Z" fill="#E6E6E6"/>
<path d="M70.7562 37.0074L74.2538 33.4636L75.8491 35.0797L84.171 33.2687L90.0534 29.8191V37.0074H70.7562Z" fill="#627FFE"/>
<path d="M10.2914 36.364C10.2914 36.5335 10.2236 36.696 10.103 36.8159C9.98239 36.9357 9.81879 37.003 9.64819 37.003C9.47759 37.003 9.31398 36.9357 9.19335 36.8159C9.07272 36.696 9.00495 36.5335 9.00495 36.364V31.5183L7.53112 32.9835C7.47133 33.0429 7.40035 33.0901 7.32223 33.1222C7.24411 33.1543 7.16039 33.1709 7.07584 33.1709C6.99128 33.1709 6.90755 33.1543 6.82943 33.1222C6.75131 33.0901 6.68033 33.0429 6.62054 32.9835C6.56075 32.9242 6.51332 32.8536 6.48096 32.7761C6.4486 32.6985 6.43195 32.6153 6.43195 32.5313C6.43195 32.4473 6.4486 32.3641 6.48096 32.2865C6.51332 32.2089 6.56075 32.1384 6.62054 32.079L9.19349 29.5232C9.31411 29.4034 9.47766 29.3362 9.64819 29.3362C9.81871 29.3362 9.98225 29.4034 10.1029 29.5232L12.6758 32.079C12.7356 32.1384 12.783 32.2089 12.8154 32.2865C12.8478 32.3641 12.8644 32.4473 12.8644 32.5313C12.8644 32.6153 12.8478 32.6985 12.8154 32.7761C12.783 32.8536 12.7356 32.9242 12.6758 32.9835C12.616 33.0429 12.5451 33.0901 12.4669 33.1222C12.3888 33.1543 12.3051 33.1709 12.2205 33.1709C12.136 33.1709 12.0523 33.1543 11.9741 33.1222C11.896 33.0901 11.825 33.0429 11.7652 32.9835L10.2914 31.5183V36.364Z" fill="#627FFE"/>
<path d="M62.7158 45.7096H20.9053C19.129 45.7096 17.6891 47.14 17.6891 48.9044V50.5018C17.6891 52.2662 19.129 53.6966 20.9053 53.6966H62.7158C64.4921 53.6966 65.932 52.2662 65.932 50.5018V48.9044C65.932 47.14 64.4921 45.7096 62.7158 45.7096Z" fill="#E6E6E6"/>
<path d="M10.2914 53.1368C10.2914 53.3062 10.2236 53.4687 10.103 53.5886C9.98239 53.7084 9.81879 53.7757 9.64819 53.7757C9.47759 53.7757 9.31398 53.7084 9.19335 53.5886C9.07272 53.4687 9.00495 53.3062 9.00495 53.1368V48.291L7.53112 49.7563C7.47133 49.8156 7.40035 49.8628 7.32223 49.8949C7.24411 49.927 7.16039 49.9436 7.07584 49.9436C6.99128 49.9436 6.90755 49.927 6.82943 49.8949C6.75131 49.8628 6.68033 49.8156 6.62054 49.7563C6.56075 49.6969 6.51332 49.6264 6.48096 49.5488C6.4486 49.4712 6.43195 49.388 6.43195 49.304C6.43195 49.22 6.4486 49.1368 6.48096 49.0592C6.51332 48.9816 6.56075 48.9111 6.62054 48.8517L9.19349 46.2959C9.31411 46.1761 9.47766 46.1089 9.64819 46.1089C9.81871 46.1089 9.98225 46.1761 10.1029 46.2959L12.6758 48.8517C12.7356 48.9111 12.783 48.9816 12.8154 49.0592C12.8478 49.1368 12.8644 49.22 12.8644 49.304C12.8644 49.388 12.8478 49.4712 12.8154 49.5488C12.783 49.6264 12.7356 49.6969 12.6758 49.7563C12.616 49.8156 12.5451 49.8628 12.4669 49.8949C12.3888 49.927 12.3051 49.9436 12.2205 49.9436C12.136 49.9436 12.0523 49.927 11.9741 49.8949C11.896 49.8628 11.825 49.8156 11.7652 49.7563L10.2914 48.291V53.1368Z" fill="#627FFE"/>
<path d="M62.7158 45.7096H20.9053C19.129 45.7096 17.6891 47.14 17.6891 48.9044V50.5018C17.6891 52.2662 19.129 53.6966 20.9053 53.6966H62.7158C64.4921 53.6966 65.932 52.2662 65.932 50.5018V48.9044C65.932 47.14 64.4921 45.7096 62.7158 45.7096Z" fill="#E6E6E6"/>
<path d="M10.2914 53.1368C10.2914 53.3062 10.2236 53.4687 10.103 53.5886C9.98239 53.7084 9.81879 53.7757 9.64819 53.7757C9.47759 53.7757 9.31398 53.7084 9.19335 53.5886C9.07272 53.4687 9.00495 53.3062 9.00495 53.1368V48.291L7.53112 49.7563C7.47133 49.8156 7.40035 49.8628 7.32223 49.8949C7.24411 49.927 7.16039 49.9436 7.07584 49.9436C6.99128 49.9436 6.90755 49.927 6.82943 49.8949C6.75131 49.8628 6.68033 49.8156 6.62054 49.7563C6.56075 49.6969 6.51332 49.6264 6.48096 49.5488C6.4486 49.4712 6.43195 49.388 6.43195 49.304C6.43195 49.22 6.4486 49.1368 6.48096 49.0592C6.51332 48.9816 6.56075 48.9111 6.62054 48.8517L9.19349 46.2959C9.31411 46.1761 9.47766 46.1089 9.64819 46.1089C9.81871 46.1089 9.98225 46.1761 10.1029 46.2959L12.6758 48.8517C12.7356 48.9111 12.783 48.9816 12.8154 49.0592C12.8478 49.1368 12.8644 49.22 12.8644 49.304C12.8644 49.388 12.8478 49.4712 12.8154 49.5488C12.783 49.6264 12.7356 49.6969 12.6758 49.7563C12.616 49.8156 12.5451 49.8628 12.4669 49.8949C12.3888 49.927 12.3051 49.9436 12.2205 49.9436C12.136 49.9436 12.0523 49.927 11.9741 49.8949C11.896 49.8628 11.825 49.8156 11.7652 49.7563L10.2914 48.291V53.1368Z" fill="#627FFE"/>
<path d="M62.7158 62.083H20.9053C19.129 62.083 17.6891 63.5134 17.6891 65.2778V66.8752C17.6891 68.6397 19.129 70.07 20.9053 70.07H62.7158C64.4921 70.07 65.932 68.6397 65.932 66.8752V65.2778C65.932 63.5134 64.4921 62.083 62.7158 62.083Z" fill="#E6E6E6"/>
<path d="M10.2914 69.5102C10.2914 69.6796 10.2236 69.8422 10.103 69.962C9.98239 70.0818 9.81879 70.1491 9.64819 70.1491C9.47759 70.1491 9.31398 70.0818 9.19335 69.962C9.07272 69.8422 9.00495 69.6796 9.00495 69.5102V64.6644L7.53112 66.1297C7.47133 66.1891 7.40035 66.2362 7.32223 66.2683C7.24411 66.3005 7.16039 66.317 7.07584 66.317C6.99128 66.317 6.90755 66.3005 6.82943 66.2683C6.75131 66.2362 6.68033 66.1891 6.62054 66.1297C6.56075 66.0703 6.51332 65.9998 6.48096 65.9222C6.4486 65.8446 6.43195 65.7614 6.43195 65.6774C6.43195 65.5934 6.4486 65.5102 6.48096 65.4326C6.51332 65.355 6.56075 65.2845 6.62054 65.2251L9.19349 62.6693C9.31411 62.5496 9.47766 62.4823 9.64819 62.4823C9.81871 62.4823 9.98225 62.5496 10.1029 62.6693L12.6758 65.2251C12.7356 65.2845 12.783 65.355 12.8154 65.4326C12.8478 65.5102 12.8644 65.5934 12.8644 65.6774C12.8644 65.7614 12.8478 65.8446 12.8154 65.9222C12.783 65.9998 12.7356 66.0703 12.6758 66.1297C12.616 66.1891 12.5451 66.2362 12.4669 66.2683C12.3888 66.3005 12.3051 66.317 12.2205 66.317C12.136 66.317 12.0523 66.3005 11.9741 66.2683C11.896 66.2362 11.825 66.1891 11.7652 66.1297L10.2914 64.6644V69.5102Z" fill="#627FFE"/>
<path d="M62.7158 62.083H20.9053C19.129 62.083 17.6891 63.5134 17.6891 65.2778V66.8752C17.6891 68.6397 19.129 70.07 20.9053 70.07H62.7158C64.4921 70.07 65.932 68.6397 65.932 66.8752V65.2778C65.932 63.5134 64.4921 62.083 62.7158 62.083Z" fill="#E6E6E6"/>
<path d="M10.2914 69.5102C10.2914 69.6796 10.2236 69.8422 10.103 69.962C9.98239 70.0818 9.81879 70.1491 9.64819 70.1491C9.47759 70.1491 9.31398 70.0818 9.19335 69.962C9.07272 69.8422 9.00495 69.6796 9.00495 69.5102V64.6644L7.53112 66.1297C7.47133 66.1891 7.40035 66.2362 7.32223 66.2683C7.24411 66.3005 7.16039 66.317 7.07584 66.317C6.99128 66.317 6.90755 66.3005 6.82943 66.2683C6.75131 66.2362 6.68033 66.1891 6.62054 66.1297C6.56075 66.0703 6.51332 65.9998 6.48096 65.9222C6.4486 65.8446 6.43195 65.7614 6.43195 65.6774C6.43195 65.5934 6.4486 65.5102 6.48096 65.4326C6.51332 65.355 6.56075 65.2845 6.62054 65.2251L9.19349 62.6693C9.31411 62.5496 9.47766 62.4823 9.64819 62.4823C9.81871 62.4823 9.98225 62.5496 10.1029 62.6693L12.6758 65.2251C12.7356 65.2845 12.783 65.355 12.8154 65.4326C12.8478 65.5102 12.8644 65.5934 12.8644 65.6774C12.8644 65.7614 12.8478 65.8446 12.8154 65.9222C12.783 65.9998 12.7356 66.0703 12.6758 66.1297C12.616 66.1891 12.5451 66.2362 12.4669 66.2683C12.3888 66.3005 12.3051 66.317 12.2205 66.317C12.136 66.317 12.0523 66.3005 11.9741 66.2683C11.896 66.2362 11.825 66.1891 11.7652 66.1297L10.2914 64.6644V69.5102Z" fill="#627FFE"/>
<path d="M70.7562 53.6966L74.2538 50.1528L75.8491 51.7689L84.171 49.9579L90.0534 46.5083V53.6966H70.7562Z" fill="#627FFE"/>
<path d="M70.7562 70.07L74.2538 66.5262L75.8491 68.1423L84.171 66.3313L90.0534 62.8817V70.07H70.7562Z" fill="#627FFE"/>
</g>
<defs>
<clipPath id="clip0_3_113">
<rect width="371" height="222" fill="white"/>
</clipPath>
</defs>
</svg>
